<svg id="Layer_1" data-name="Layer 1" xmlns="http://www.w3.org/2000/svg" viewBox="0 0 71.94 71.14">
  <defs>
    <style>
      .cls-1, .cls-3 {
        fill: none;
        stroke-miterlimit: 10;
      }

      .cls-1 {
        stroke: #000;
        stroke-width: 4px;
      }

      .cls-2 {
        fill: #c1272d;
      }

      .cls-3 {
        stroke: #c1272d;
        stroke-width: 3px;
      }
    </style>
  </defs>
  <title>Artboard 2 copy 2sbsq</title>
  <line class="cls-1" x1="70.1" y1="60.57" x2="1.85" y2="60.57"/>
  <rect x="1.85" y="8.86" width="68.09" height="4"/>
  <rect class="cls-2" x="1.85" y="12.71" width="68.09" height="3"/>
  <line class="cls-3" x1="70.1" y1="57.12" x2="1.85" y2="57.12"/>
  <g>
    <path d="M20.58,31.31a3,3,0,0,0,.74-.08,1.36,1.36,0,0,0,.47-.2.71.71,0,0,0,.24-.31.94.94,0,0,0,.07-.39.92.92,0,0,0-.44-.77,6.43,6.43,0,0,0-1.49-.66,8.84,8.84,0,0,1-.92-.37,3.1,3.1,0,0,1-.83-.53,2.7,2.7,0,0,1-.6-.77,2.46,2.46,0,0,1-.23-1.11A2.64,2.64,0,0,1,17.84,25a2.41,2.41,0,0,1,.69-.89,3.27,3.27,0,0,1,1.08-.57,5,5,0,0,1,1.44-.19,6.16,6.16,0,0,1,1.65.2,6.44,6.44,0,0,1,1.14.45l-.61,1.67a5.39,5.39,0,0,0-.88-.36,3.91,3.91,0,0,0-1.16-.16,2.11,2.11,0,0,0-1.09.21.71.71,0,0,0-.34.65.67.67,0,0,0,.13.43,1.05,1.05,0,0,0,.34.32,2.8,2.8,0,0,0,.52.26l.64.24c.49.18.92.36,1.28.53a3.66,3.66,0,0,1,.9.62,2.29,2.29,0,0,1,.54.83,3.28,3.28,0,0,1,.17,1.15,2.45,2.45,0,0,1-.92,2.05,4.46,4.46,0,0,1-2.78.72A7.78,7.78,0,0,1,19.45,33a8.19,8.19,0,0,1-.89-.18,4.46,4.46,0,0,1-.66-.24,3.44,3.44,0,0,1-.47-.23l.6-1.68a5.38,5.38,0,0,0,1,.41A5.16,5.16,0,0,0,20.58,31.31Z"/>
    <path d="M34.87,28.21a5.8,5.8,0,0,1-.36,2.13,4.29,4.29,0,0,1-1,1.53A4.09,4.09,0,0,1,32,32.8a5.32,5.32,0,0,1-1.85.31,5.23,5.23,0,0,1-1.82-.31,4.17,4.17,0,0,1-1.49-.93,4.35,4.35,0,0,1-1-1.53,5.8,5.8,0,0,1-.36-2.13,5.38,5.38,0,0,1,.38-2.12,4.41,4.41,0,0,1,1-1.54,4.24,4.24,0,0,1,1.49-.94,5.15,5.15,0,0,1,1.79-.31,5.23,5.23,0,0,1,1.82.31,4.06,4.06,0,0,1,1.49.94,4.39,4.39,0,0,1,1,1.54A5.78,5.78,0,0,1,34.87,28.21Zm-7.18,0a4.39,4.39,0,0,0,.17,1.25,2.9,2.9,0,0,0,.49,1,2.15,2.15,0,0,0,.78.62,2.76,2.76,0,0,0,2.11,0,2.18,2.18,0,0,0,.79-.62,3.1,3.1,0,0,0,.49-1,4.68,4.68,0,0,0,0-2.5A3,3,0,0,0,32,26a2.16,2.16,0,0,0-.79-.61,2.64,2.64,0,0,0-2.11,0,2.17,2.17,0,0,0-.78.63,2.81,2.81,0,0,0-.49,1A4.42,4.42,0,0,0,27.69,28.21Z"/>
    <path d="M39.77,33.05c-.51,0-1,0-1.54,0a10.33,10.33,0,0,1-1.59-.23V23.65a13.72,13.72,0,0,1,1.42-.18q.78-.06,1.44-.06a9.36,9.36,0,0,1,1.65.13,3.76,3.76,0,0,1,1.3.44,2.39,2.39,0,0,1,.85.82,2.44,2.44,0,0,1,.3,1.25,2,2,0,0,1-1.08,1.78,2.28,2.28,0,0,1,1.22.93,2.6,2.6,0,0,1,.32,1.31A2.53,2.53,0,0,1,43,32.3,5.62,5.62,0,0,1,39.77,33.05ZM38.7,27.21h1a3,3,0,0,0,1.4-.25.88.88,0,0,0,.42-.81.82.82,0,0,0-.43-.8,2.74,2.74,0,0,0-1.28-.23h-.58l-.56,0Zm0,1.61v2.43a3.9,3.9,0,0,0,.5,0l.6,0A3.73,3.73,0,0,0,41.34,31a1,1,0,0,0,.58-1,1,1,0,0,0-.49-.93,2.93,2.93,0,0,0-1.4-.28Z"/>
    <path d="M51.94,32.92c-.11-.32-.22-.66-.34-1l-.36-1H47.57l-.36,1c-.12.34-.23.68-.34,1H44.68c.35-1,.69-2,1-2.81s.63-1.67.94-2.43.6-1.48.89-2.16.61-1.35.92-2h2c.31.65.62,1.32.92,2s.6,1.4.9,2.16.62,1.57.94,2.43l1,2.81Zm-2.55-7.27c0,.13-.11.32-.2.55s-.2.51-.31.82-.25.65-.4,1l-.43,1.16h2.69q-.23-.6-.42-1.17c-.14-.37-.26-.71-.39-1s-.22-.58-.32-.81S49.45,25.78,49.39,25.65Z"/>
  </g>
  <g>
    <path d="M12,45.46a3,3,0,0,0,.74-.07,1.58,1.58,0,0,0,.47-.2.64.64,0,0,0,.24-.31,1,1,0,0,0,.07-.39.9.9,0,0,0-.43-.77,6.55,6.55,0,0,0-1.5-.66c-.31-.11-.61-.23-.92-.37a3.56,3.56,0,0,1-.83-.53,2.75,2.75,0,0,1-.6-.78A2.45,2.45,0,0,1,9,40.28a2.65,2.65,0,0,1,.25-1.18,2.49,2.49,0,0,1,.69-.89,3.21,3.21,0,0,1,1.09-.56,4.86,4.86,0,0,1,1.44-.2,5.68,5.68,0,0,1,1.64.21,5.2,5.2,0,0,1,1.14.45l-.61,1.67a5.39,5.39,0,0,0-.88-.36,3.61,3.61,0,0,0-1.16-.16,2.11,2.11,0,0,0-1.09.21.7.7,0,0,0-.33.64.76.76,0,0,0,.12.44,1.17,1.17,0,0,0,.34.32,4.2,4.2,0,0,0,.52.26l.64.23a12.69,12.69,0,0,1,1.28.54,3.4,3.4,0,0,1,.9.62,2.21,2.21,0,0,1,.54.83,3.23,3.23,0,0,1,.18,1.15,2.43,2.43,0,0,1-.93,2,4.4,4.4,0,0,1-2.78.73,7.69,7.69,0,0,1-1.13-.08A8.19,8.19,0,0,1,10,47a5,5,0,0,1-.66-.23,5.21,5.21,0,0,1-.47-.23l.6-1.68a5.24,5.24,0,0,0,1,.41A5.43,5.43,0,0,0,12,45.46Z"/>
    <path d="M26.32,42.37a6.12,6.12,0,0,1-.25,1.78,4.51,4.51,0,0,1-.68,1.39,4.19,4.19,0,0,1-1.06,1,4.34,4.34,0,0,1-1.34.57.74.74,0,0,0,.3.44,2.24,2.24,0,0,0,.58.28,5.42,5.42,0,0,0,.82.16c.32,0,.65.07,1,.09l-.43,1.55a10.62,10.62,0,0,1-1.81-.21A4.56,4.56,0,0,1,22.18,49a2.57,2.57,0,0,1-.83-.73,3.48,3.48,0,0,1-.47-1,4.78,4.78,0,0,1-1.56-.46,4.21,4.21,0,0,1-1.25-1,4.56,4.56,0,0,1-.82-1.47,5.85,5.85,0,0,1-.3-1.94,5.4,5.4,0,0,1,.38-2.13,4.51,4.51,0,0,1,1-1.54,4.16,4.16,0,0,1,1.5-.93,5.06,5.06,0,0,1,1.78-.32,5.24,5.24,0,0,1,1.82.32,4,4,0,0,1,1.49.93,4.48,4.48,0,0,1,1,1.54A5.79,5.79,0,0,1,26.32,42.37Zm-7.19,0a4.39,4.39,0,0,0,.17,1.25,2.94,2.94,0,0,0,.49,1,2,2,0,0,0,.78.62,2.64,2.64,0,0,0,2.11,0,2,2,0,0,0,.79-.62,2.76,2.76,0,0,0,.49-1,4.39,4.39,0,0,0,.17-1.25A4.52,4.52,0,0,0,24,41.11a2.81,2.81,0,0,0-.49-1,2.1,2.1,0,0,0-.79-.62,2.53,2.53,0,0,0-1.05-.22,2.39,2.39,0,0,0-1.06.23,2.15,2.15,0,0,0-.78.62,3,3,0,0,0-.49,1A4.37,4.37,0,0,0,19.13,42.37Z"/>
    <path d="M31.76,47.27A4.64,4.64,0,0,1,30.05,47a3.23,3.23,0,0,1-1.19-.77A3.17,3.17,0,0,1,28.17,45a4.89,4.89,0,0,1-.23-1.52V37.67h2.12v5.68a3.4,3.4,0,0,0,.13,1,1.92,1.92,0,0,0,.35.65,1.39,1.39,0,0,0,.55.36,2.19,2.19,0,0,0,.7.11A1.7,1.7,0,0,0,33,45a2.21,2.21,0,0,0,.48-1.61V37.67h2.12v5.85A4.89,4.89,0,0,1,35.41,45a3,3,0,0,1-1.91,2A5,5,0,0,1,31.76,47.27Z"/>
    <path d="M43.72,47.08l-.34-1L43,45H39.35l-.36,1c-.12.35-.23.68-.33,1h-2.2c.35-1,.69-1.95,1-2.81s.63-1.67.94-2.43.6-1.48.9-2.17.6-1.35.92-2h2c.31.65.62,1.32.92,2s.6,1.41.9,2.17.62,1.57.94,2.43.65,1.79,1,2.81ZM41.17,39.8c0,.14-.11.32-.2.56s-.2.51-.31.81l-.39,1c-.15.37-.29.76-.44,1.17h2.69c-.15-.41-.28-.8-.42-1.17s-.26-.71-.38-1-.23-.58-.32-.82Z"/>
    <path d="M50,37.56a5.81,5.81,0,0,1,3.25.76,2.61,2.61,0,0,1,1.12,2.34,2.69,2.69,0,0,1-.45,1.61,3.09,3.09,0,0,1-1.31,1,9.82,9.82,0,0,1,.59.8c.21.31.42.62.62,1s.4.67.59,1,.37.7.53,1H52.53L52,46.14c-.18-.31-.36-.62-.55-.92s-.37-.58-.55-.85-.36-.51-.54-.73h-1v3.44H47.2V37.81a10.72,10.72,0,0,1,1.43-.19Q49.36,37.56,50,37.56Zm.12,1.81h-.41l-.35,0V42h.6a3.57,3.57,0,0,0,1.71-.3,1.09,1.09,0,0,0,.52-1,1,1,0,0,0-.53-1A3.14,3.14,0,0,0,50.07,39.37Z"/>
    <path d="M56.25,47.08V37.67H62.6v1.78H58.37V41.3h3.76V43H58.37V45.3h4.55v1.78Z"/>
  </g>
  <g>
    <rect x="8.91" y="2.48" width="5" height="30.66"/>
    <rect x="8.88" y="50.74" width="5" height="17.73"/>
  </g>
  <g>
    <rect x="57.92" y="2.48" width="5" height="30.66"/>
    <rect x="57.92" y="50.74" width="5" height="17.92"/>
  </g>
</svg>
