<svg id="Layer_1" data-name="Layer 1" xmlns="http://www.w3.org/2000/svg" viewBox="0 0 512 474.82">
  <defs>
    <style>
      .cls-1 {
        fill: #fff;
        stroke: #fff;
        stroke-miterlimit: 10;
      }
    </style>
  </defs>
  <title>Open Map</title>
  <g>
    <path d="M497.43,39.88a8.83,8.83,0,0,0-8-1.22l-158,39.63L182.27,19a6.86,6.86,0,0,0-1.11,0,8.86,8.86,0,0,0-2.86,0L17.84,78.86a8.91,8.91,0,0,0-7,8.7V441A8.93,8.93,0,0,0,19.78,450a9.73,9.73,0,0,0,1.93-.2L180.44,394l149.78,61.85a8.65,8.65,0,0,0,4.69-.45s.06,0,.09,0l160.45-60.53a9,9,0,0,0,5.69-8.32V47.12A8.92,8.92,0,0,0,497.43,39.88ZM28.69,94.7,171.32,38.78V377.72L28.69,429.92ZM189.14,38.92,322.86,94.61V436.4l-133.72-59ZM483.31,380.4,340.68,434V94L483.31,59.48Z"/>
    <g>
      <path class="cls-1" d="M308.79,268.78l24.29,40.7a24.42,24.42,0,0,0,42,0l24.29-40.7,8.41-14.09,37.51-62.87.26-.46A102.66,102.66,0,1,0,251.38,144a103,103,0,0,0,11.24,47.38c.08.15.16.31.25.46l37.51,62.87Z"/>
      <g>
        <path d="M273.61,184.16A90.89,90.89,0,0,1,263.69,142c.29-49.68,40.93-90.66,90.6-91.34a91.94,91.94,0,0,1,83.29,133.49L363,309.1a8.68,8.68,0,0,1-14.89,0Zm33.82,90.51L333.27,318a26,26,0,0,0,44.65,0l25.83-43.31,8.95-15,39.91-66.88.27-.49a109.21,109.21,0,1,0-206.53-50.4,109.55,109.55,0,0,0,12,50.4c.08.16.17.33.27.49l39.91,66.88Z"/>
        <path d="M355.6,91.87A48.38,48.38,0,1,0,404,140.25,48.43,48.43,0,0,0,355.6,91.87Zm0,75.55a27.18,27.18,0,1,1,27.17-27.17A27.2,27.2,0,0,1,355.6,167.42Z"/>
      </g>
    </g>
  </g>
</svg>
