<svg id="Layer_1" data-name="Layer 1" xmlns="http://www.w3.org/2000/svg" viewBox="0 0 71.94 71.14">
  <defs>
    <style>
      .cls-1 {
        fill: #c1272d;
      }
    </style>
  </defs>
  <title>Artboard 2 copy 3</title>
  <g>
    <path d="M20,34a8.88,8.88,0,0,1-1.21-.08,8.22,8.22,0,0,1-1-.2,5.41,5.41,0,0,1-.72-.25c-.2-.09-.37-.17-.51-.25l-.15-.09L17.19,31l.21.11a4.77,4.77,0,0,0,1.05.42,5.51,5.51,0,0,0,1.52.18,2.87,2.87,0,0,0,.72-.07,1,1,0,0,0,.42-.18.51.51,0,0,0,.19-.23.86.86,0,0,0,.06-.34.76.76,0,0,0-.37-.63,6.68,6.68,0,0,0-1.51-.66c-.33-.12-.66-.25-1-.4a3.53,3.53,0,0,1-.92-.59,2.66,2.66,0,0,1-.94-2.11,3.15,3.15,0,0,1,.28-1.32,2.92,2.92,0,0,1,.78-1,3.5,3.5,0,0,1,1.2-.62,5.09,5.09,0,0,1,1.57-.22,6.58,6.58,0,0,1,1.77.22,6.41,6.41,0,0,1,1.23.49l.16.08-.78,2.13-.21-.11a6,6,0,0,0-.88-.36,3.82,3.82,0,0,0-1.15-.15,1.9,1.9,0,0,0-1,.19.51.51,0,0,0-.26.5.62.62,0,0,0,.09.34,1.2,1.2,0,0,0,.31.27,2.59,2.59,0,0,0,.5.25l.67.25a14.5,14.5,0,0,1,1.35.57,3.74,3.74,0,0,1,1,.68,2.55,2.55,0,0,1,.61.94,3.78,3.78,0,0,1,.2,1.28A2.73,2.73,0,0,1,23,33.16,4.78,4.78,0,0,1,20,34Z"/>
    <path d="M20,31.88a3.25,3.25,0,0,0,.77-.08,1.31,1.31,0,0,0,.49-.21.71.71,0,0,0,.26-.32,1.12,1.12,0,0,0,.07-.42,1,1,0,0,0-.45-.8,6.62,6.62,0,0,0-1.57-.68q-.48-.18-1-.39a3.92,3.92,0,0,1-.87-.56,2.65,2.65,0,0,1-.62-.81,2.51,2.51,0,0,1-.24-1.15,2.85,2.85,0,0,1,.25-1.23,2.74,2.74,0,0,1,.73-.93A3.46,3.46,0,0,1,19,23.71a5.07,5.07,0,0,1,1.51-.2,6,6,0,0,1,2.91.68l-.64,1.74a5.51,5.51,0,0,0-.92-.37,3.88,3.88,0,0,0-1.21-.17,2.28,2.28,0,0,0-1.14.22.75.75,0,0,0-.35.68.73.73,0,0,0,.13.45,1.16,1.16,0,0,0,.36.33,2.72,2.72,0,0,0,.54.27l.67.25c.51.19,1,.38,1.34.56a3.72,3.72,0,0,1,.94.65,2.25,2.25,0,0,1,.56.86,3.59,3.59,0,0,1,.18,1.21,2.55,2.55,0,0,1-1,2.13,4.62,4.62,0,0,1-2.91.76,8.42,8.42,0,0,1-1.18-.07,8.27,8.27,0,0,1-.93-.2,3.93,3.93,0,0,1-.69-.24,3.2,3.2,0,0,1-.49-.24l.62-1.76a5.38,5.38,0,0,0,1.09.43A5.52,5.52,0,0,0,20,31.88Z"/>
    <path d="M30,34a5.87,5.87,0,0,1-2-.34,4.78,4.78,0,0,1-1.63-1,4.91,4.91,0,0,1-1.1-1.67,6.26,6.26,0,0,1-.39-2.3,6.09,6.09,0,0,1,.41-2.3,4.81,4.81,0,0,1,1.12-1.67,4.57,4.57,0,0,1,1.63-1A5.68,5.68,0,0,1,30,23.3a5.88,5.88,0,0,1,2,.34,4.57,4.57,0,0,1,1.63,1,4.86,4.86,0,0,1,1.1,1.68,6.95,6.95,0,0,1,0,4.59,4.85,4.85,0,0,1-1.07,1.67,4.59,4.59,0,0,1-1.63,1A6,6,0,0,1,30,34Zm0-8.32a2.18,2.18,0,0,0-1,.22,2.07,2.07,0,0,0-.75.59,3,3,0,0,0-.47.94,4.64,4.64,0,0,0,0,2.49,2.91,2.91,0,0,0,.47.93,2,2,0,0,0,.74.59,2.58,2.58,0,0,0,2,0,2,2,0,0,0,.75-.59,2.91,2.91,0,0,0,.47-.93,4.68,4.68,0,0,0,0-2.5,2.86,2.86,0,0,0-.47-.94,2.07,2.07,0,0,0-.75-.59A2.38,2.38,0,0,0,30,25.65Z"/>
    <path d="M34.91,28.64a6.07,6.07,0,0,1-.38,2.22,4.59,4.59,0,0,1-1,1.61,4.2,4.2,0,0,1-1.55,1,5.8,5.8,0,0,1-1.94.32,5.7,5.7,0,0,1-1.9-.32,4.51,4.51,0,0,1-1.56-1,4.78,4.78,0,0,1-1.05-1.61,6.07,6.07,0,0,1-.38-2.22,5.67,5.67,0,0,1,.4-2.22,4.68,4.68,0,0,1,1.07-1.61,4.53,4.53,0,0,1,1.56-1A5.27,5.27,0,0,1,30,23.51a5.47,5.47,0,0,1,1.91.32,4.53,4.53,0,0,1,1.56,1,4.78,4.78,0,0,1,1.05,1.61A6.07,6.07,0,0,1,34.91,28.64Zm-7.51,0A4.46,4.46,0,0,0,27.58,30a3.15,3.15,0,0,0,.51,1,2.23,2.23,0,0,0,.82.64,2.75,2.75,0,0,0,2.2,0,2.26,2.26,0,0,0,.83-.64,3.15,3.15,0,0,0,.51-1,4.86,4.86,0,0,0,0-2.62,3.1,3.1,0,0,0-.51-1,2.26,2.26,0,0,0-.83-.64,2.75,2.75,0,0,0-2.2,0,2.39,2.39,0,0,0-.82.66,3,3,0,0,0-.51,1A4.49,4.49,0,0,0,27.4,28.64Z"/>
    <path d="M40,33.9c-.54,0-1.08,0-1.62,0a13.61,13.61,0,0,1-1.7-.24l-.16,0V23.71l.17,0a12.32,12.32,0,0,1,1.51-.2c.54,0,1.05-.06,1.52-.06a10.78,10.78,0,0,1,1.76.13,4.49,4.49,0,0,1,1.42.49,2.6,2.6,0,0,1,1,.93,2.72,2.72,0,0,1,.35,1.42,2.21,2.21,0,0,1-.92,1.82,2.2,2.2,0,0,1,1,.9,3,3,0,0,1,.37,1.48,2.85,2.85,0,0,1-1.22,2.49A6.13,6.13,0,0,1,40,33.9Zm-.59-2.24h.62a3.78,3.78,0,0,0,1.52-.26.86.86,0,0,0,.49-.87.81.81,0,0,0-.41-.79,2.77,2.77,0,0,0-1.36-.27H39.11v2.16ZM40,27.39a3,3,0,0,0,1.36-.23.72.72,0,0,0,.34-.67.65.65,0,0,0-.35-.66,2.67,2.67,0,0,0-1.24-.22h-.6l-.39,0v1.75Z"/>
    <path d="M40,33.69c-.54,0-1.07,0-1.61,0a11.51,11.51,0,0,1-1.67-.23V23.88a15,15,0,0,1,1.49-.2c.54,0,1-.06,1.51-.06a10.2,10.2,0,0,1,1.72.13,4,4,0,0,1,1.36.47,2.39,2.39,0,0,1,.88.85A2.48,2.48,0,0,1,44,26.39a2.1,2.1,0,0,1-1.13,1.86,2.25,2.25,0,0,1,1.27,1,2.74,2.74,0,0,1,.34,1.38,2.63,2.63,0,0,1-1.12,2.32A5.94,5.94,0,0,1,40,33.69Zm-1.12-6.1H40a3.06,3.06,0,0,0,1.46-.26.92.92,0,0,0,.44-.84.87.87,0,0,0-.45-.84,3,3,0,0,0-1.34-.24h-.61l-.58,0Zm0,1.69v2.54l.53,0,.62,0a3.78,3.78,0,0,0,1.6-.29,1,1,0,0,0,.61-1.05,1,1,0,0,0-.51-1,3,3,0,0,0-1.46-.29Z"/>
    <path d="M52.59,33.77l0-.14-.35-1.05-.33-.94H48.32l-.33.94c-.12.36-.24.71-.34,1.05l0,.14H44.87L45,33.5q.55-1.59,1-2.94c.34-.9.66-1.75,1-2.55s.63-1.55.94-2.27.63-1.41,1-2.1l.05-.11h2.36l0,.12c.33.68.65,1.38,1,2.09s.63,1.48,1,2.27.65,1.65,1,2.55.68,1.88,1.06,2.94l.09.27Zm-1.39-4.3c-.12-.32-.23-.64-.34-.94s-.27-.75-.4-1.07l-.37-.93L49,29.47Z"/>
    <path d="M52.74,33.56c-.11-.34-.23-.69-.35-1.05s-.25-.72-.38-1.07H48.17c-.12.36-.25.71-.37,1.07s-.24.72-.35,1.05h-2.3c.37-1.05.72-2,1.06-2.93s.65-1.75,1-2.54.63-1.55.94-2.26.63-1.42,1-2.1h2.1c.32.68.64,1.38,1,2.1s.63,1.46.95,2.26.65,1.64,1,2.54.68,1.88,1,2.93ZM50.08,26l-.21.58c-.1.25-.21.53-.33.86l-.41,1.06c-.15.39-.3.79-.45,1.22h2.81c-.15-.43-.3-.84-.44-1.22s-.27-.75-.4-1.07l-.34-.85C50.22,26.29,50.14,26.1,50.08,26Z"/>
  </g>
  <g>
    <path d="M11,47.49a8.77,8.77,0,0,1-1.21-.08,8.22,8.22,0,0,1-1-.2A6.16,6.16,0,0,1,8.06,47a4.63,4.63,0,0,1-.5-.25l-.15-.08.76-2.15.21.12a5.16,5.16,0,0,0,2.57.59,2.87,2.87,0,0,0,.72-.07,1,1,0,0,0,.42-.18.56.56,0,0,0,.19-.22,1.21,1.21,0,0,0,.05-.34.77.77,0,0,0-.36-.64,6.68,6.68,0,0,0-1.51-.66c-.33-.12-.66-.25-1-.4a3.53,3.53,0,0,1-.91-.58,2.74,2.74,0,0,1-.67-.87A2.71,2.71,0,0,1,7.62,40a3,3,0,0,1,.28-1.31,2.64,2.64,0,0,1,.78-1A3.43,3.43,0,0,1,9.88,37a5.44,5.44,0,0,1,1.56-.22,6.25,6.25,0,0,1,1.78.23,6.07,6.07,0,0,1,1.23.48l.15.09-.77,2.12-.21-.1a6,6,0,0,0-.88-.37,3.87,3.87,0,0,0-1.15-.15,2,2,0,0,0-1,.19.54.54,0,0,0-.25.5.59.59,0,0,0,.09.34.93.93,0,0,0,.31.27,2.6,2.6,0,0,0,.5.26l.66.24c.53.2,1,.39,1.36.57a4.27,4.27,0,0,1,1,.68,2.77,2.77,0,0,1,.61.94A3.79,3.79,0,0,1,15,44.39a2.78,2.78,0,0,1-1,2.3A4.85,4.85,0,0,1,11,47.49Z"/>
    <path d="M11,45.4a3.25,3.25,0,0,0,.77-.08,1.39,1.39,0,0,0,.49-.21.79.79,0,0,0,.26-.32,1.3,1.3,0,0,0,.07-.41,1,1,0,0,0-.46-.8,5.91,5.91,0,0,0-1.56-.69q-.48-.18-1-.39a3.6,3.6,0,0,1-.87-.56,2.73,2.73,0,0,1-.62-.8A2.58,2.58,0,0,1,7.83,40a2.91,2.91,0,0,1,.25-1.23,2.63,2.63,0,0,1,.73-.93,3.46,3.46,0,0,1,1.13-.59,5.34,5.34,0,0,1,1.5-.2,6.17,6.17,0,0,1,1.72.21,6,6,0,0,1,1.19.47l-.64,1.74a6.39,6.39,0,0,0-.91-.37,3.92,3.92,0,0,0-1.21-.17,2.23,2.23,0,0,0-1.15.23.73.73,0,0,0-.34.67.79.79,0,0,0,.12.45,1.22,1.22,0,0,0,.37.34,2.91,2.91,0,0,0,.53.27l.68.24c.51.19.95.38,1.33.56a3.78,3.78,0,0,1,.95.65,2.41,2.41,0,0,1,.56.87,3.53,3.53,0,0,1,.18,1.2,2.58,2.58,0,0,1-1,2.14,4.73,4.73,0,0,1-2.91.76,8.32,8.32,0,0,1-1.18-.08A8.41,8.41,0,0,1,8.84,47a4.88,4.88,0,0,1-.69-.25,3.2,3.2,0,0,1-.49-.24l.62-1.76a5.14,5.14,0,0,0,1.09.44A5.51,5.51,0,0,0,11,45.4Z"/>
    <path d="M24.79,50a10.86,10.86,0,0,1-1.93-.23,4.7,4.7,0,0,1-1.39-.51,2.9,2.9,0,0,1-.94-.82,3.79,3.79,0,0,1-.48-1,5.17,5.17,0,0,1-1.56-.49,4.55,4.55,0,0,1-1.37-1.06,4.79,4.79,0,0,1-.9-1.6,6.25,6.25,0,0,1-.33-2.1,5.85,5.85,0,0,1,.42-2.29,5,5,0,0,1,1.11-1.68,4.6,4.6,0,0,1,1.64-1A5.68,5.68,0,0,1,21,36.82a5.82,5.82,0,0,1,2,.34,4.6,4.6,0,0,1,1.64,1,4.79,4.79,0,0,1,1.09,1.68,6,6,0,0,1,.4,2.29,6.78,6.78,0,0,1-.26,1.93,5.26,5.26,0,0,1-.75,1.52,4.54,4.54,0,0,1-1.15,1.08,5,5,0,0,1-1.24.56.57.57,0,0,0,.15.16,1.76,1.76,0,0,0,.55.26,5.35,5.35,0,0,0,.82.17c.33,0,.68.07,1.05.09l.25,0L25,50ZM21,39.18a2.38,2.38,0,0,0-1,.21,2,2,0,0,0-.74.6,2.64,2.64,0,0,0-.48.93,4.64,4.64,0,0,0,0,2.49,2.64,2.64,0,0,0,.48.93,2,2,0,0,0,.74.59,2.35,2.35,0,0,0,1,.21,2.38,2.38,0,0,0,1-.21,2,2,0,0,0,.74-.59,2.64,2.64,0,0,0,.48-.93,4.68,4.68,0,0,0,0-2.5,2.78,2.78,0,0,0-.48-.94,2,2,0,0,0-.74-.59A2.41,2.41,0,0,0,21,39.18Z"/>
    <path d="M25.89,42.16A6.35,6.35,0,0,1,25.63,44a4.69,4.69,0,0,1-.72,1.45,4,4,0,0,1-1.09,1,4.92,4.92,0,0,1-1.41.6.85.85,0,0,0,.31.46,2.16,2.16,0,0,0,.61.29,5.69,5.69,0,0,0,.86.17l1.06.1-.46,1.61a10.66,10.66,0,0,1-1.89-.21,5.14,5.14,0,0,1-1.33-.49,2.62,2.62,0,0,1-.87-.77,3.39,3.39,0,0,1-.49-1.05,5.23,5.23,0,0,1-1.63-.49,4.3,4.3,0,0,1-1.31-1,4.88,4.88,0,0,1-.86-1.54,6.06,6.06,0,0,1-.31-2,5.87,5.87,0,0,1,.39-2.22,5,5,0,0,1,1.08-1.61,4.35,4.35,0,0,1,1.56-1A5.51,5.51,0,0,1,21,37a5.66,5.66,0,0,1,1.9.32,4.35,4.35,0,0,1,1.56,1,4.59,4.59,0,0,1,1.05,1.61A5.87,5.87,0,0,1,25.89,42.16Zm-7.51,0a4.41,4.41,0,0,0,.18,1.31,3,3,0,0,0,.51,1,2.15,2.15,0,0,0,.82.64,2.43,2.43,0,0,0,1.1.23,2.46,2.46,0,0,0,1.1-.23,2.15,2.15,0,0,0,.82-.64,2.7,2.7,0,0,0,.51-1,4.41,4.41,0,0,0,.18-1.31,4.46,4.46,0,0,0-.18-1.31,2.75,2.75,0,0,0-.51-1,2.25,2.25,0,0,0-.82-.64A2.61,2.61,0,0,0,21,39a2.44,2.44,0,0,0-1.1.24,2.18,2.18,0,0,0-.82.65,3,3,0,0,0-.51,1A4.37,4.37,0,0,0,18.38,42.16Z"/>
    <path d="M31.58,47.49a5.05,5.05,0,0,1-1.87-.31,3.54,3.54,0,0,1-1.31-.85A3.39,3.39,0,0,1,27.63,45a5.39,5.39,0,0,1-.25-1.65V37.05H30v6.14a3.28,3.28,0,0,0,.12,1,1.56,1.56,0,0,0,.33.6,1,1,0,0,0,.48.32,2,2,0,0,0,.66.11,1.6,1.6,0,0,0,1.17-.44,2.11,2.11,0,0,0,.45-1.54V37.05h2.62v6.32A5.39,5.39,0,0,1,35.59,45a3.58,3.58,0,0,1-.79,1.32,3.46,3.46,0,0,1-1.34.85A5.33,5.33,0,0,1,31.58,47.49Z"/>
    <path d="M31.58,47.29a4.83,4.83,0,0,1-1.79-.3,3.16,3.16,0,0,1-2-2,5.19,5.19,0,0,1-.23-1.58V37.26H29.8v5.93a3.33,3.33,0,0,0,.14,1,1.77,1.77,0,0,0,.37.68,1.27,1.27,0,0,0,.56.38,2.48,2.48,0,0,0,.73.11,1.78,1.78,0,0,0,1.32-.5,2.33,2.33,0,0,0,.5-1.68V37.26h2.21v6.11A5,5,0,0,1,35.39,45a3.11,3.11,0,0,1-.74,1.24,3.25,3.25,0,0,1-1.26.8A5.17,5.17,0,0,1,31.58,47.29Z"/>
    <path d="M43.93,47.29l0-.14-.35-1-.33-.94H39.65l-.33.94c-.12.36-.24.71-.34,1l0,.14H36.2l.09-.27c.37-1.06.72-2,1.06-2.94s.66-1.75,1-2.54.64-1.56.94-2.27.64-1.42,1-2.1l.06-.12h2.35l0,.12q.5,1,1,2.1c.32.71.63,1.47,1,2.27s.65,1.64,1,2.54S46.27,46,46.64,47l.09.27ZM42.53,43c-.11-.33-.23-.65-.34-1s-.27-.74-.4-1.06l-.37-.94s-1,2.62-1.12,3Z"/>
    <path d="M44.07,47.09c-.11-.34-.22-.7-.35-1.06s-.25-.71-.38-1.07H39.5c-.12.36-.24.72-.37,1.08s-.24.71-.35,1.05h-2.3c.37-1.06.73-2,1.06-2.94s.65-1.74,1-2.54.63-1.55.94-2.26.63-1.41,1-2.09h2.1c.32.68.64,1.37,1,2.09s.63,1.47.94,2.26.65,1.64,1,2.54.68,1.88,1,2.94Zm-2.66-7.61c0,.15-.12.34-.21.59s-.21.52-.33.85L40.47,42c-.15.39-.31.8-.46,1.22h2.81c-.15-.43-.3-.83-.44-1.22s-.27-.75-.4-1.07-.24-.6-.33-.85Z"/>
    <path d="M53.16,47.29l-.61-1.08c-.18-.33-.37-.65-.56-1l-.58-.88c-.16-.24-.33-.46-.49-.67h-.8v3.59H47.5V37.23l.17,0a10.7,10.7,0,0,1,1.52-.2c.52,0,1-.06,1.4-.06a6.25,6.25,0,0,1,3.5.82,3.35,3.35,0,0,1,.75,4.42,3.19,3.19,0,0,1-1.21,1l.47.65c.22.32.44.65.65,1s.43.71.63,1.09.38.75.55,1.11l.14.29Zm-2.62-5.75a3.6,3.6,0,0,0,1.69-.29.94.94,0,0,0,.44-.89.91.91,0,0,0-.44-.85,3.34,3.34,0,0,0-1.52-.28l-.41,0h-.18v2.28Z"/>
    <path d="M50.59,37.14a6.07,6.07,0,0,1,3.39.79,3.15,3.15,0,0,1,.7,4.13,3.08,3.08,0,0,1-1.37,1c.2.25.41.53.62.85s.44.64.65,1,.42.7.62,1.08.38.74.55,1.1H53.28l-.55-1-.57-1-.58-.88A8.35,8.35,0,0,0,51,43.5H49.92v3.59H47.71V37.4a11.88,11.88,0,0,1,1.49-.2C49.72,37.16,50.18,37.14,50.59,37.14ZM50.71,39h-.43l-.36,0v2.67h.62a3.74,3.74,0,0,0,1.79-.31,1.14,1.14,0,0,0,.54-1.07,1.09,1.09,0,0,0-.55-1A3.41,3.41,0,0,0,50.71,39Z"/>
    <polygon points="56.97 47.29 56.97 37.05 64.01 37.05 64.01 39.32 59.59 39.32 59.59 40.84 63.52 40.84 63.52 43.06 59.59 43.06 59.59 45.02 64.34 45.02 64.34 47.29 56.97 47.29"/>
    <path d="M57.17,47.09V37.26h6.64v1.85H59.38V41h3.93v1.82H59.38v2.37h4.76v1.86Z"/>
  </g>
  <path class="cls-1" d="M66.4,17.88H5.4C5,17.88,3.89,15.6,3.89,15l.76-.06c0-.6.34-1.08.75-1.08h61c.41,0,.74.48.74,1.08l.76.06C67.9,15.6,66.81,17.88,66.4,17.88Z"/>
  <path class="cls-1" d="M69.55,58.38H2.39c-.6,0-1.09-.73-1.09-1.63l-.85.54c0-.9,1.34-3.43,1.94-3.43H69.55c.61,0,1.94,2.53,1.94,3.43l-.84-.54C70.65,57.65,70.16,58.38,69.55,58.38Z"/>
  <g>
    <path d="M14.26,32.45,17.15,5.16A1,1,0,0,0,16.23,4H13.51A1,1,0,0,0,12.36,5L9.47,32.24a1,1,0,0,0,.93,1.14h2.72A1,1,0,0,0,14.26,32.45Z"/>
    <path d="M7.47,51.13l-1.58,15a1,1,0,0,0,.93,1.14H9.54a1,1,0,0,0,1.14-.93l1.58-14.91a1,1,0,0,0-.93-1.15l-2.72,0A1,1,0,0,0,7.47,51.13Z"/>
  </g>
  <g>
    <path d="M62.33,32.24,59.46,4.88A1,1,0,0,0,58.32,4L55.6,4a1,1,0,0,0-.92,1.14l2.86,27.29a1.05,1.05,0,0,0,1.15.93h2.72A1,1,0,0,0,62.33,32.24Z"/>
    <path d="M59.53,51.39l1.59,15.09a1,1,0,0,0,1.14.92H65a1,1,0,0,0,.93-1.15L64.34,51.17a1,1,0,0,0-1.15-.92H60.46A1.05,1.05,0,0,0,59.53,51.39Z"/>
  </g>
  <path d="M67.14,15.78H4.65A.77.77,0,0,1,3.89,15V12.71a.77.77,0,0,1,.76-.78H67.14a.77.77,0,0,1,.76.78V15A.77.77,0,0,1,67.14,15.78Z"/>
  <path d="M70.65,61.25H1.3a.94.94,0,0,1-.85-1v-3a.94.94,0,0,1,.85-1H70.65a.94.94,0,0,1,.84,1v3A.93.93,0,0,1,70.65,61.25Z"/>
</svg>
